# xmcd
#
# Track frame offsets: 
#        150
#        18770
#        47847
#        67180
#        92210
#        119970
#        137200
#        160667
#        180292
#        203767
#
# Disc length: 3024 seconds
#
# Revision: 2
# Processed by: cddbd v1.5.2PL0 Copyright (c) Steve Scherf et al.
# Submitted via: ExactAudioCopy v0.99pb5
#
DISCID=8b0bce0a
DTITLE=Manh Dinh (et al) - Dan Ca 3 Mien
DYEAR=1994
DGENRE=Ethnic (Vietnamese)
TTITLE0=Manh Dinh and Son Tuyen - Tinh Tham Duyen Que
TTITLE1=Y Lan - Lien Khuc 3 Mien
TTITLE2=Manh Dinh and Nhu Quynh - Huu Duyen Thien Ly Ngo
TTITLE3=Manh Dinh and Son Tuyen - Giang Cau
TTITLE4=Manh Dinh - Que Huong
TTITLE5=Nhu Quynh - Qua Cau Gio Bay
TTITLE6=Son Tuyen - Duyen Que
TTITLE7=Manh Dinh - Ao Dai Que Huong
TTITLE8=Manh Dinh - Chiec Ao Ba Ba
TTITLE9=Manh Dinh and Nhu Quynh - Ngau Hung Ly Qua Cau
EXTD=ID3G:   0
EXTT0=
EXTT1=
EXTT2=
EXTT3=
EXTT4=
EXTT5=
EXTT6=
EXTT7=
EXTT8=
EXTT9=
PLAYORDER=
